<svg width="27" height="30" viewBox="0 0 27 30" fill="none" xmlns="http://www.w3.org/2000/svg">
<rect x="0.25" y="3.25" width="26.5" height="26.5" rx="4.75" fill="#1D1D1D" stroke="url(#paint0_linear_94_241)" stroke-width="0.5"/>
<path d="M8.66 16.46C8.66 15.3133 8.89333 14.3133 9.36 13.46C9.82667 12.5933 10.4733 11.9267 11.3 11.46C12.1267 10.98 13.0733 10.74 14.14 10.74C15.5133 10.74 16.6467 11.0867 17.54 11.78C18.4467 12.46 19.0533 13.42 19.36 14.66H16.34C16.18 14.18 15.9067 13.8067 15.52 13.54C15.1467 13.26 14.68 13.12 14.12 13.12C13.32 13.12 12.6867 13.4133 12.22 14C11.7533 14.5733 11.52 15.3933 11.52 16.46C11.52 17.5133 11.7533 18.3333 12.22 18.92C12.6867 19.4933 13.32 19.78 14.12 19.78C15.2533 19.78 15.9933 19.2733 16.34 18.26H19.36C19.0533 19.46 18.4467 20.4133 17.54 21.12C16.6333 21.8267 15.5 22.18 14.14 22.18C13.0733 22.18 12.1267 21.9467 11.3 21.48C10.4733 21 9.82667 20.3333 9.36 19.48C8.89333 18.6133 8.66 17.6067 8.66 16.46Z" fill="white" fill-opacity="0.35"/>
<defs>
<linearGradient id="paint0_linear_94_241" x1="3.22858e-07" y1="0.999999" x2="30" y2="33.5" gradientUnits="userSpaceOnUse">
<stop offset="0.0360715" stop-color="white" stop-opacity="0.24"/>
<stop offset="1" stop-color="#1C1C1C"/>
</linearGradient>
</defs>
</svg>
